<svg xmlns="http://www.w3.org/2000/svg" width="115" height="30" viewBox="0 0 115 30">
    <g fill="none" fill-rule="nonzero">
        <path fill="#324558" d="M38.515 17.044c0 1-1.257 2.219-2.363 2.807.955.481 1.474.764 1.93 1.068.347.216.456.414.326.782-.088.284-.521.916-.846.916-.26 0-.413-.088-.804-.37-.65-.413-2.038-1.285-3.621-1.939-1.39-.565-3.124-2.067-3.124-3.264V9.38c0-1.504 2.775-3.53 4.23-3.53 1.496 0 4.272 2.026 4.272 3.53v7.663zm-6.356-.285c0 .763 1.41 1.807 2.084 1.807.715 0 2.126-1.044 2.126-1.807V9.661c0-.762-1.389-1.805-2.126-1.805-.673 0-2.084 1.043-2.084 1.805v7.098zm10.997 3.136a.47.47 0 0 1-.478.48h-1.192a.482.482 0 0 1-.477-.48V6.528a.48.48 0 0 1 .477-.479h1.192c.283 0 .478.217.478.479v13.367zm4.815-9.144v9.144c0 .284-.216.48-.52.48h-1.085a.487.487 0 0 1-.498-.48V6.528c0-.262.238-.479.498-.479h.91c.348 0 .5.174.674.479l4.381 9.23v-9.23c0-.284.195-.479.479-.479h1.105c.283 0 .5.195.5.479v13.367c0 .284-.217.48-.5.48h-.888c-.327 0-.544-.24-.674-.48l-4.382-9.144zm13.578 1.893c0-.261.239-.478.498-.478h2.648c.282 0 .694.414.694.674v4.203c0 1.458-2.733 3.527-4.23 3.527-1.454 0-4.252-2.069-4.252-3.527V9.38c0-1.503 2.82-3.529 4.252-3.529.933 0 2.321.719 3.34 1.352a.536.536 0 0 1 .217.716l-.368.72c-.13.24-.478.327-.76.175-.78-.415-1.843-.958-2.429-.958-.65 0-2.104 1.043-2.104 1.805v7.098c0 .741 1.432 1.807 2.104 1.807.651 0 2.083-1.088 2.083-1.807V14.06h-1.194c-.26 0-.498-.219-.498-.479v-.937zm7.96 4.115c0 .786 1.497 1.828 2.083 1.828.607 0 1.496-.478 2.277-.913.304-.152.673-.065.803.219l.347.718c.13.283.043.588-.195.718-.998.61-2.213 1.241-3.232 1.241-1.41 0-4.23-1.936-4.23-3.526V9.38c0-1.546 2.798-3.53 4.252-3.53.91 0 2.169.635 3.188 1.221.26.13.347.478.196.74l-.325.696c-.13.262-.478.348-.76.196-.781-.391-1.692-.87-2.299-.87-.608 0-2.105 1.045-2.105 1.827v7.098zm7.331 2.722V6.527c0-.261.238-.478.5-.478h1.127c.28 0 .52.217.52.478V18.48h4.079c.281 0 .5.217.5.478v.937c0 .262-.219.48-.5.48h-5.38c-.304 0-.846-.61-.846-.894zm16.138-2.437c0 1.501-2.777 3.526-4.274 3.526-1.453 0-4.23-2.004-4.23-3.526V9.38c0-1.504 2.777-3.53 4.23-3.53 1.497 0 4.274 2.026 4.274 3.53v7.663zm-6.356-.285c0 .763 1.41 1.807 2.082 1.807.716 0 2.126-1.044 2.126-1.807V9.661c0-.762-1.388-1.805-2.126-1.805-.673 0-2.082 1.043-2.082 1.805v7.098zm12.97 3.811c-1.432 0-4.23-1.936-4.23-3.506V6.527c0-.261.238-.478.5-.478h1.15c.28 0 .497.217.497.478v10.255c0 .763 1.412 1.805 2.084 1.805.673 0 2.082-1.042 2.082-1.805V6.527c0-.261.196-.478.457-.478h1.191c.262 0 .5.217.5.478v10.537c0 1.523-2.799 3.506-4.23 3.506zM114.753 17c0 1.306-2.43 3.375-3.904 3.375h-3.385c-.607 0-1.04-.372-1.04-.807V6.898c0-.459.477-.85 1.04-.85h3.342c1.517 0 3.947 1.916 3.947 3.374V17zm-2.148-7.273c0-.719-1.3-1.808-2.081-1.808h-1.952v10.582h1.995c.759 0 2.038-1.108 2.038-1.806V9.727z"/>
        <path fill="#00AA72" d="M17.93 17.43l4.752 2.799-4.752 2.8v-5.6zm.375-.66l4.75-2.8v5.595l-4.75-2.796zm-.375-6.263l4.752 2.799-4.752 2.801v-5.6zM.682 6.384l4.748-2.8v5.599L.682 6.384zm-.377.661l4.75 2.8-4.75 2.798V7.045zm0 6.924l4.751 2.8-4.751 2.8v-5.6zM17.93 3.582l4.753 2.802-4.753 2.8V3.583zm.375 6.264l4.75-2.797v5.594l-4.75-2.797zM12.43 6.384l4.752-2.8v5.597L12.43 6.384zm0 13.843l4.752-2.797v5.597l-4.752-2.8zM6.555 2.922l4.75-2.8V5.72l-4.75-2.798zm5.498-2.8l4.754 2.8-4.754 2.8v-5.6zm0 20.77l4.754 2.799-4.754 2.8v-5.6zm.377 6.262l4.752-2.8v5.598l-4.752-2.798zM6.178 17.43l4.753 2.799-4.753 2.8v-5.6zm0-13.85l4.753 2.802-4.753 2.8V3.58zM.68 13.306l4.75-2.796v5.594L.68 13.306zm.002 6.923L5.43 17.43v5.598l-4.748-2.8zm5.873 3.463l4.75-2.8v5.599l-4.75-2.799z"/>
    </g>
</svg>
